<svg width="512" height="512" viewBox="0 0 512 512" xmlns="http://www.w3.org/2000/svg">
  <defs>
    <clipPath id="circle">
      <circle cx="256" cy="256" r="256" />
    </clipPath>
    <linearGradient id="shine" x1="0" y1="0" x2="1" y2="1">
      <stop offset="0%" stop-color="white" stop-opacity="0.4"/>
      <stop offset="50%" stop-color="white" stop-opacity="0.1"/>
      <stop offset="100%" stop-color="white" stop-opacity="0"/>
    </linearGradient>
  </defs>

  <g clip-path="url(#circle)">
    <!-- US flag section -->
    <rect x="0" y="0" width="171" height="512" fill="#b22234"/>
    <g fill="#fff">
      <rect x="0" y="37" width="171" height="37"/>
      <rect x="0" y="111" width="171" height="37"/>
      <rect x="0" y="185" width="171" height="37"/>
      <rect x="0" y="259" width="171" height="37"/>
      <rect x="0" y="333" width="171" height="37"/>
      <rect x="0" y="407" width="171" height="37"/>
    </g>
    <rect x="0" y="0" width="85.5" height="259" fill="#3c3b6e"/>
    <!-- Simple stars -->
    <circle cx="20" cy="20" r="5" fill="white"/>
    <circle cx="40" cy="40" r="5" fill="white"/>
    <circle cx="60" cy="20" r="5" fill="white"/>

    <!-- EU flag section -->
    <rect x="171" y="0" width="170" height="512" fill="#003399"/>
    <g fill="#ffcc00">
      <circle cx="256" cy="90" r="8"/>
      <circle cx="236" cy="110" r="8"/>
      <circle cx="226" cy="140" r="8"/>
      <circle cx="236" cy="170" r="8"/>
      <circle cx="256" cy="190" r="8"/>
      <circle cx="276" cy="170" r="8"/>
      <circle cx="286" cy="140" r="8"/>
      <circle cx="276" cy="110" r="8"/>
    </g>

    <!-- Australia flag section -->
    <rect x="341" y="0" width="171" height="512" fill="#00247d"/>
    <!-- Union Jack top-left -->
    <g transform="scale(0.3) translate(1136, 0)">
      <rect width="380" height="190" fill="#00247d"/>
      <path d="M0,0 L380,190 M0,190 L380,0" stroke="white" stroke-width="30"/>
      <path d="M0,0 L380,190 M0,190 L380,0" stroke="#cf142b" stroke-width="15"/>
      <rect x="170" width="40" height="190" fill="white"/>
      <rect y="75" width="380" height="40" fill="white"/>
      <rect x="180" width="20" height="190" fill="#cf142b"/>
      <rect y="85" width="380" height="20" fill="#cf142b"/>
    </g>
    <!-- Southern Cross -->
    <g fill="white">
      <circle cx="450" cy="130" r="6"/>
      <circle cx="410" cy="180" r="6"/>
      <circle cx="490" cy="180" r="6"/>
      <circle cx="470" cy="230" r="6"/>
      <circle cx="430" cy="230" r="6"/>
    </g>
  </g>

  <!-- Shine overlay -->
  <circle cx="256" cy="256" r="256" fill="url(#shine)" />
</svg>
