<svg width="334" height="219" viewBox="0 0 334 219" fill="none" xmlns="http://www.w3.org/2000/svg">
<g clip-path="url(#clip0_1976_513)">
<path d="M222.91 183.72C222.91 181.09 222.91 178.47 222.91 175.85C222.91 174.13 223.27 172.58 225.4 172.53C227.53 172.48 227.99 174.03 228 175.73C228 180.803 228 185.877 228 190.95C228 192.16 227.77 193.36 226.43 193.77C225.832 193.965 225.185 193.95 224.596 193.729C224.007 193.507 223.511 193.091 223.19 192.55C221.05 189.69 218.83 186.89 216.61 184.08C216.13 183.47 215.84 182.6 214.55 182.49C214.55 185.25 214.55 187.97 214.55 190.68C214.55 192.43 214.16 193.91 212 193.87C209.84 193.83 209.5 192.3 209.49 190.59C209.49 185.59 209.49 180.59 209.49 175.59C209.49 174.25 209.79 173.05 211.21 172.59C212.63 172.13 213.58 172.77 214.43 173.87C217.01 177.21 219.64 180.52 222.24 183.87L222.91 183.72Z" fill="#414042"/>
<path d="M132.31 183.92C132.31 181.01 132.31 178.47 132.31 175.92C132.31 174.12 132.7 172.45 134.99 172.53C137.12 172.61 137.37 174.22 137.37 175.93C137.37 180.66 137.37 185.4 137.37 190.14C137.37 191.54 137.58 193.14 135.86 193.75C134.14 194.36 133.12 193.25 132.15 191.99C129.65 188.7 127.08 185.46 124.37 181.99C123.56 183.69 123.99 185.17 123.92 186.59C123.84 188.17 123.92 189.75 123.92 191.33C123.92 192.76 123.32 193.75 121.79 193.9C120.26 194.05 119.08 193.23 119.05 191.7C118.94 186.05 118.96 180.39 119.05 174.7C119.05 174.189 119.227 173.695 119.552 173.3C119.877 172.906 120.329 172.637 120.83 172.54C121.358 172.404 121.915 172.435 122.424 172.631C122.934 172.826 123.369 173.175 123.67 173.63C125.67 176.18 127.67 178.74 129.67 181.27C130.314 182.361 131.222 183.272 132.31 183.92Z" fill="#414042"/>
<path d="M266.84 183.69C266.84 181.03 266.84 178.37 266.84 175.69C266.84 173.93 267.34 172.48 269.46 172.49C271.58 172.5 271.91 174 271.92 175.59C271.97 180.67 271.92 185.75 271.92 190.83C271.92 192.12 271.69 193.4 270.18 193.83C268.67 194.26 267.83 193.53 267 192.42C264.9 189.63 262.72 186.89 260.56 184.14C260.348 183.719 260.053 183.346 259.692 183.043C259.331 182.741 258.911 182.515 258.46 182.38C258.46 185.18 258.46 187.88 258.46 190.57C258.46 192.29 258.2 193.84 256.02 193.88C253.84 193.92 253.42 192.45 253.41 190.7C253.41 185.7 253.41 180.7 253.41 175.7C253.41 174.37 253.65 173.15 255.06 172.7C256.47 172.25 257.57 172.92 258.46 174.08C261.03 177.41 263.64 180.7 266.24 184.01L266.84 183.69Z" fill="#414042"/>
<path d="M235 183.16C235 180.83 235 178.5 235 176.16C235.06 173.61 235.95 172.67 238.46 172.58C240.53 172.51 242.62 172.53 244.7 172.58C246.08 172.63 247.18 173.24 247.2 174.79C247.22 176.34 246.2 176.92 244.72 176.94C243.88 176.94 243.05 177.01 242.22 176.94C240.69 176.8 240 177.23 239.98 178.94C239.96 180.65 240.76 181.04 242.24 180.94C243.151 180.863 244.067 180.897 244.97 181.04C245.242 181.07 245.506 181.156 245.743 181.291C245.981 181.427 246.189 181.611 246.353 181.83C246.517 182.05 246.634 182.3 246.697 182.567C246.76 182.834 246.768 183.11 246.72 183.38C246.721 183.894 246.524 184.388 246.17 184.76C245.816 185.132 245.333 185.354 244.82 185.38C243.905 185.455 242.985 185.455 242.07 185.38C240.6 185.26 240 185.74 240 187.38C240 189.02 240.84 189.1 242 189.06C243 189.008 244.003 189.031 245 189.13C246.31 189.28 247.23 189.98 247.17 191.39C247.174 191.683 247.114 191.973 246.993 192.24C246.873 192.507 246.695 192.744 246.473 192.935C246.251 193.126 245.989 193.265 245.707 193.344C245.425 193.423 245.129 193.438 244.84 193.39C242.68 193.39 240.51 193.39 238.35 193.39C235.77 193.39 235.01 192.57 234.96 189.89C234.91 187.66 235 185.41 235 183.16Z" fill="#414042"/>
<path d="M100.44 183C100.44 180.67 100.44 178.34 100.44 176C100.44 173.66 101.61 172.62 103.85 172.61C105.93 172.61 108.01 172.56 110.09 172.61C111.58 172.66 112.76 173.32 112.67 174.99C112.58 176.66 111.43 176.99 110.02 176.99C109.18 176.99 108.34 177.07 107.52 176.99C105.89 176.81 105.36 177.44 105.37 179.09C105.38 180.74 105.93 181.16 107.37 181.03C108.281 180.945 109.199 180.945 110.11 181.03C110.401 181.042 110.686 181.113 110.947 181.241C111.208 181.368 111.44 181.549 111.628 181.771C111.816 181.993 111.956 182.251 112.039 182.53C112.122 182.809 112.146 183.101 112.11 183.39C112.11 183.662 112.055 183.932 111.948 184.182C111.841 184.432 111.683 184.657 111.486 184.845C111.288 185.032 111.055 185.177 110.799 185.271C110.544 185.364 110.272 185.405 110 185.39C109.087 185.445 108.172 185.445 107.26 185.39C105.93 185.29 105.26 185.66 105.26 187.16C105.26 188.66 105.72 189.16 107.14 189.02C108.214 188.915 109.296 188.915 110.37 189.02C111.64 189.18 112.62 189.86 112.57 191.28C112.52 192.7 111.57 193.28 110.23 193.28C107.99 193.28 105.74 193.23 103.5 193.28C101.26 193.33 100.4 192.28 100.34 190.28C100.27 187.79 100.34 185.28 100.34 182.8L100.44 183Z" fill="#414042"/>
<path d="M111.05 210.34C111.05 208.34 111.05 206.42 111.05 204.46C111.05 202.99 111.49 201.72 113.26 201.79C115.03 201.86 115.17 203.15 115.17 204.48C115.17 208.23 115.17 211.97 115.17 215.72C115.17 216.89 115.25 218.18 113.83 218.63C112.41 219.08 111.55 218.02 110.77 217.01C108.89 214.6 107 212.2 104.84 209.46C104.29 211.96 104.62 214.02 104.51 216.05C104.43 217.47 104.17 218.8 102.31 218.7C100.61 218.61 100.42 217.38 100.42 216.03C100.42 212.12 100.42 208.21 100.42 204.3C100.42 203.23 100.59 202.24 101.72 201.86C102.203 201.709 102.722 201.725 103.194 201.907C103.666 202.088 104.063 202.424 104.32 202.86C106.32 205.4 108.337 207.933 110.37 210.46L111.05 210.34Z" fill="#414042"/>
<path d="M322.75 210C322.75 212.06 322.8 214.13 322.75 216.19C322.75 217.52 322.36 218.73 320.65 218.71C318.94 218.69 318.65 217.53 318.65 216.16C318.65 212.25 318.65 208.33 318.65 204.42C318.65 203.27 318.85 202.19 320.11 201.82C320.6 201.706 321.114 201.755 321.574 201.959C322.034 202.163 322.415 202.511 322.66 202.95C324.66 205.5 326.66 208.01 328.9 210.8C329.58 208.57 329.17 206.6 329.28 204.69C329.37 203.3 329.46 201.85 331.28 201.79C333.28 201.73 333.39 203.26 333.39 204.79C333.39 208.54 333.39 212.29 333.39 216.03C333.39 217.14 333.39 218.3 332.06 218.7C330.73 219.1 330.06 218.35 329.33 217.43C327.33 214.88 325.33 212.35 323.33 209.82L322.75 210Z" fill="#414042"/>
<path d="M199.46 210.28C199.46 208.4 199.46 206.53 199.46 204.66C199.46 203.25 199.69 201.86 201.46 201.8C203.23 201.74 203.54 203.09 203.54 204.53C203.54 208.35 203.54 212.18 203.54 216C203.54 217.1 203.54 218.24 202.2 218.64C200.86 219.04 200.2 218.29 199.47 217.39C197.47 214.85 195.54 212.39 193.57 209.81L193 210C193 212 193 214.06 193 216.08C193 217.55 192.61 218.8 190.79 218.7C188.97 218.6 188.91 217.36 188.91 216.03C188.91 212.2 188.91 208.38 188.91 204.56C188.91 203.43 188.98 202.32 190.22 201.87C191.46 201.42 192.22 202.12 192.97 203.04C194.9 205.52 196.88 207.96 198.84 210.41L199.46 210.28Z" fill="#414042"/>
<path d="M131.49 208.31C135.49 208.31 136.36 209.41 135.26 213.31C134.89 214.573 134.206 215.721 133.271 216.648C132.336 217.574 131.182 218.247 129.915 218.605C128.649 218.963 127.313 218.993 126.031 218.693C124.75 218.393 123.566 217.773 122.59 216.89C119.59 214.22 118.88 208.73 121.09 205.18C122.198 203.444 123.896 202.167 125.871 201.582C127.846 200.998 129.966 201.146 131.84 202C132.575 202.352 133.25 202.817 133.84 203.38C134.133 203.623 134.332 203.961 134.403 204.335C134.474 204.709 134.413 205.096 134.23 205.43C134.035 205.804 133.71 206.095 133.316 206.248C132.922 206.401 132.487 206.405 132.09 206.26C131.542 206.083 131.017 205.838 130.53 205.53C127.89 204.21 125.63 204.9 124.53 207.35C123.25 210.2 124.33 214.06 126.75 214.96C127.128 215.142 127.538 215.246 127.957 215.267C128.376 215.287 128.795 215.223 129.188 215.079C129.582 214.934 129.942 214.712 130.248 214.425C130.555 214.138 130.8 213.793 130.97 213.41C131.5 212.41 131.61 211.64 130.07 211.7C128.87 211.75 127.52 211.7 127.52 210.1C127.52 208.5 128.9 208.28 130.22 208.28L131.49 208.31Z" fill="#414042"/>
<path d="M51.4 208.51C51.4 209.42 51.4 210.33 51.4 211.25C51.31 216.04 48.64 218.75 44.04 218.73C39.65 218.73 37.04 215.93 37.04 211.2C37.04 208.87 37.04 206.55 37.04 204.2C37.04 202.77 37.48 201.7 39.13 201.76C40.78 201.82 40.93 202.94 40.92 204.21C40.92 206.53 40.85 208.86 40.92 211.21C41.03 213.77 42.27 215.15 44.2 215.12C46.13 215.09 47.2 213.74 47.28 211.12C47.28 209.04 47.28 206.96 47.28 204.89C47.28 203.45 47.28 201.89 49.28 201.8C51.28 201.71 51.36 203.29 51.35 204.8L51.4 208.51Z" fill="#414042"/>
<path d="M185.71 181.33C185.71 183.16 185.83 185 185.71 186.82C185.59 188.64 186.34 189.15 188.01 189.03C189.087 188.938 190.171 189.002 191.23 189.22C191.502 189.259 191.764 189.354 191.998 189.498C192.232 189.643 192.434 189.834 192.591 190.061C192.747 190.287 192.856 190.543 192.909 190.813C192.962 191.083 192.959 191.361 192.9 191.63C192.859 192.14 192.619 192.612 192.231 192.946C191.843 193.279 191.34 193.446 190.83 193.41C188.34 193.41 185.83 193.47 183.34 193.41C181.49 193.36 180.66 192.13 180.64 190.41C180.587 185.41 180.587 180.41 180.64 175.41C180.64 173.75 181.33 172.41 183.28 172.47C185.23 172.53 185.73 173.88 185.74 175.55L185.71 181.33Z" fill="#414042"/>
<path d="M5.28999 218.73C3.84818 218.846 2.40719 218.496 1.17999 217.73C0.719725 217.524 0.357894 217.146 0.171214 216.678C-0.0154661 216.209 -0.0123167 215.686 0.179994 215.22C0.36791 214.79 0.712023 214.448 1.14272 214.262C1.57343 214.077 2.05856 214.062 2.49999 214.22C3.38999 214.4 4.22999 214.79 5.11999 214.98C6.18999 215.21 7.21999 214.98 7.54999 213.83C7.87999 212.68 6.99999 212.26 5.99999 212C4.99999 211.74 4.08999 211.42 3.15999 211.09C1.48999 210.49 0.249994 209.49 0.0799944 207.56C-0.0374495 206.688 0.0869825 205.801 0.439697 204.995C0.792411 204.189 1.35984 203.495 2.07999 202.99C4.29999 201.37 6.72999 201.43 9.18999 202.26C10.31 202.64 11.09 203.45 10.65 204.74C10.21 206.03 9.24999 206.01 8.17999 205.81C6.87999 205.57 5.03999 204.46 4.56999 206.38C4.09999 208.3 6.31999 207.93 7.43999 208.31C10.99 209.55 12.31 211.24 11.84 214.24C11.37 217.24 9.25999 218.74 5.28999 218.73Z" fill="#414042"/>
<path d="M213.88 218.73C212.435 218.844 210.992 218.494 209.76 217.73C209.298 217.526 208.934 217.148 208.748 216.679C208.561 216.21 208.565 215.686 208.76 215.22C208.94 214.789 209.28 214.443 209.709 214.257C210.137 214.071 210.622 214.057 211.06 214.22C211.95 214.39 212.79 214.8 213.68 214.98C214.74 215.2 215.79 214.98 216.12 213.82C216.45 212.66 215.49 212.23 214.61 211.89C213.73 211.55 213.03 211.38 212.24 211.14C210.14 210.51 208.65 209.33 208.68 206.94C208.649 205.843 208.984 204.767 209.632 203.881C210.28 202.996 211.205 202.352 212.26 202.05C213.199 201.703 214.198 201.545 215.198 201.584C216.198 201.624 217.181 201.86 218.09 202.28C218.332 202.351 218.557 202.473 218.749 202.638C218.941 202.802 219.095 203.005 219.203 203.234C219.311 203.463 219.369 203.711 219.374 203.964C219.378 204.217 219.329 204.468 219.23 204.7C218.82 205.75 217.94 205.86 216.96 205.7C215.59 205.52 213.58 204.22 213.2 206.38C212.89 208.12 215.2 207.83 216.44 208.29C219.72 209.55 220.97 211.29 220.44 214.29C219.91 217.29 217.76 218.73 213.88 218.73Z" fill="#414042"/>
<path d="M83.6099 182.91C83.6099 180.41 83.6099 177.91 83.6099 175.43C83.6099 173.71 84.2699 172.43 86.2099 172.52C88.1499 172.61 88.5599 173.86 88.5799 175.42C88.5799 179.16 88.6899 182.9 88.5799 186.64C88.5099 188.45 88.9699 189.28 90.8999 189.05C91.8994 188.936 92.9102 188.97 93.8999 189.15C94.1738 189.166 94.4416 189.237 94.6878 189.358C94.9341 189.479 95.1539 189.648 95.3344 189.854C95.5149 190.061 95.6525 190.301 95.7393 190.561C95.8261 190.822 95.8603 191.096 95.8399 191.37C95.8404 191.642 95.7852 191.912 95.6779 192.162C95.5706 192.412 95.4133 192.637 95.2158 192.825C95.0183 193.012 94.7846 193.157 94.5291 193.25C94.2736 193.344 94.0017 193.385 93.7299 193.37C91.2399 193.42 88.7299 193.44 86.2499 193.37C84.3899 193.37 83.6599 192.1 83.6499 190.37C83.5999 187.89 83.6099 185.4 83.6099 182.91Z" fill="#414042"/>
<path d="M246.78 218.23C246.03 218.23 245.28 218.23 244.53 218.23C244.197 218.29 243.855 218.271 243.531 218.175C243.207 218.079 242.909 217.909 242.663 217.678C242.416 217.447 242.226 217.161 242.11 216.844C241.993 216.526 241.952 216.186 241.99 215.85C241.93 212.02 241.99 208.19 241.99 204.36C241.999 203.865 242.133 203.379 242.38 202.95C243.3 201.41 250.48 201.12 251.38 202.63C252.18 203.91 251.72 204.91 250.23 205.19C249.321 205.32 248.399 205.32 247.49 205.19C246.15 205.07 246.05 205.83 246.01 206.87C246.01 208.07 246.57 208.2 247.54 208.23C249.02 208.23 251.21 207.65 251.26 209.97C251.26 212.46 249.02 211.59 247.61 211.66C246.45 211.72 246.02 212.03 245.99 213.24C245.96 214.45 246.59 214.69 247.66 214.73C249.2 214.8 251.66 214.03 251.66 216.45C251.66 219.18 249.06 217.87 247.55 218.18C247.296 218.223 247.038 218.24 246.78 218.23Z" fill="#414042"/>
<path d="M264.54 218.76C260.88 218.76 258.31 217.41 256.99 214.37C255.49 210.89 255.44 207.37 258.07 204.3C260.39 201.61 263.47 201.3 266.75 201.97C267.152 202.071 267.537 202.233 267.89 202.45C268.89 203.05 269.58 203.89 269.01 205.12C268.44 206.35 267.48 206.22 266.46 205.79C264.72 205.06 263.02 204.99 261.62 206.43C260.07 208.03 260.05 210.05 260.53 212.05C260.633 212.605 260.86 213.129 261.193 213.585C261.526 214.04 261.956 214.415 262.454 214.682C262.951 214.949 263.501 215.1 264.065 215.126C264.629 215.152 265.191 215.051 265.71 214.83C267.05 214.39 268.61 213.47 269.23 215.5C269.85 217.53 268.04 218.01 266.65 218.5C265.961 218.68 265.252 218.768 264.54 218.76Z" fill="#414042"/>
<path d="M81.4 201.69C82.6501 201.622 83.8967 201.877 85.02 202.43C86.12 203.03 86.68 203.91 86.18 205.1C85.68 206.29 84.71 206.1 83.65 205.83C79.19 204.65 76.57 207.26 77.65 211.76C78.3 214.56 80.35 215.76 83.08 214.76C84.39 214.29 85.8 213.64 86.38 215.47C86.96 217.3 85.45 218.02 84.07 218.38C80.83 219.25 77.71 218.93 75.4 216.24C74.2335 214.92 73.4741 213.29 73.2133 211.547C72.9524 209.805 73.2013 208.024 73.93 206.42C75.22 203.13 77.92 201.69 81.4 201.69Z" fill="#414042"/>
<path d="M202.57 183.08C202.57 185.75 202.57 188.41 202.57 191.08C202.57 192.69 201.97 193.86 200.14 193.9C198.31 193.94 197.55 192.83 197.54 191.23C197.48 185.897 197.48 180.563 197.54 175.23C197.54 173.66 198.29 172.46 200.1 172.49C201.91 172.52 202.52 173.75 202.55 175.33C202.6 177.93 202.57 180.51 202.57 183.08Z" fill="#414042"/>
<path d="M278.76 201.78C280.09 201.78 281.42 201.73 282.76 201.78C283.011 201.759 283.264 201.793 283.501 201.879C283.738 201.965 283.954 202.102 284.132 202.28C284.311 202.458 284.449 202.673 284.537 202.909C284.625 203.146 284.66 203.399 284.64 203.65C284.649 203.884 284.604 204.116 284.508 204.33C284.413 204.543 284.27 204.732 284.09 204.882C283.911 205.031 283.699 205.138 283.472 205.193C283.245 205.248 283.008 205.251 282.78 205.2C280.78 204.94 280.69 206.08 280.78 207.59C280.86 210.41 280.84 213.24 280.78 216.06C280.78 217.35 280.54 218.66 278.78 218.69C277.02 218.72 276.67 217.42 276.66 215.98C276.66 213.07 276.61 210.16 276.66 207.25C276.66 205.91 276.56 204.96 274.83 205.2C273.74 205.35 272.78 205.01 272.71 203.69C272.64 202.37 273.58 201.81 274.79 201.77C276 201.73 277.43 201.78 278.76 201.78Z" fill="#414042"/>
<path d="M183.64 210.29C183.64 212.29 183.64 214.29 183.64 216.29C183.64 217.67 183.15 218.79 181.47 218.72C179.97 218.66 179.47 217.63 179.47 216.35C179.47 212.27 179.47 208.19 179.47 204.11C179.47 202.79 180.07 201.81 181.47 201.78C182.87 201.75 183.47 202.78 183.54 204.06C183.54 206.14 183.54 208.22 183.54 210.3L183.64 210.29Z" fill="#414042"/>
<path d="M91 210.08C91 208.08 91 206.08 91 204.08C91 202.76 91.5 201.78 93 201.76C94.5 201.74 95 202.76 95 204.07C95.06 208.14 95.06 212.22 95 216.29C95 217.66 94.5 218.79 92.82 218.71C91.14 218.63 91 217.42 91 216.07C91 214.07 91 212.08 91 210.08Z" fill="#414042"/>
<path d="M293 210.47V216.2C293 217.58 292.68 218.74 291 218.71C289.32 218.68 289 217.52 289 216.15C289 212.15 289 208.15 289 204.15C289 202.74 289.58 201.67 291.2 201.75C292.82 201.83 293.05 202.91 293.05 204.2V210.44L293 210.47Z" fill="#414042"/>
<path d="M245.21 97.93C244.784 97.4219 244.323 96.944 243.83 96.5C237.52 90.2 231.25 83.86 224.83 77.63C223.48 76.31 223.27 75.55 224.76 74.12C229.86 69.21 234.89 64.22 239.76 59.12C245.19 53.46 242.94 44.72 235.5 42.51C231.35 41.27 227.85 42.67 224.85 45.68C214.183 56.3467 203.517 67.0133 192.85 77.68C191.27 79.27 189.72 81.89 187.97 82.06C185.97 82.25 184.72 79.06 182.88 77.74C181.04 76.42 181.44 75.37 182.94 73.89C194.913 62.1167 206.8 50.2867 218.6 38.4C222.88 34.09 222.84 27.92 218.74 23.87C214.64 19.82 208.74 20.01 204.45 24.23C200.69 27.89 197.02 31.64 193.29 35.33C191.58 37.02 189.9 39.88 188.05 40.01C185.91 40.15 184.55 36.85 182.61 35.32C181.11 34.13 181.61 33.32 182.72 32.22C187.72 27.32 192.63 22.34 197.58 17.39C198.561 16.4835 199.359 15.3972 199.93 14.19C200.866 12.028 201.025 9.60864 200.38 7.34277C199.735 5.0769 198.325 3.10428 196.39 1.75999C194.527 0.461177 192.27 -0.149298 190.006 0.0331381C187.742 0.215574 185.611 1.17957 183.98 2.75999C178.78 7.80666 173.653 12.93 168.6 18.13C167.27 19.5 166.6 19.43 165.27 18.13C160.217 12.9367 155.09 7.81666 149.89 2.76999C148.42 1.32362 146.524 0.38897 144.481 0.104404C142.439 -0.180161 140.359 0.200484 138.55 1.18999C136.801 2.09546 135.359 3.49712 134.403 5.21917C133.448 6.94123 133.023 8.90701 133.18 10.87C133.407 13.5484 134.661 16.0353 136.68 17.81C148.54 29.64 160.34 41.52 172.21 53.33C173.42 54.52 173.67 55.33 172.21 56.45C170.973 57.4422 169.843 58.5617 168.84 59.79C167.46 61.52 166.54 61.4 164.97 59.79C153.48 48.11 141.83 36.54 130.22 25C129.075 23.6696 127.665 22.5933 126.08 21.84C123.988 20.9815 121.668 20.85 119.493 21.4664C117.317 22.0829 115.411 23.4117 114.08 25.24C112.715 27.0622 112.03 29.3048 112.145 31.5788C112.261 33.8528 113.168 36.0149 114.71 37.69C118.53 41.86 122.65 45.76 126.63 49.79C128.26 51.45 131 53.07 131.13 54.86C131.28 56.93 128.07 58.22 126.61 60.1C125.39 61.66 124.61 61.34 123.3 60.1C118.48 55.1 113.54 50.3 108.65 45.41C107.42 44.0892 105.858 43.1232 104.127 42.6131C102.396 42.1029 100.56 42.0673 98.8101 42.51C91.0601 44.27 88.6101 53.51 94.3501 59.51C99.2001 64.56 104.17 69.51 109.21 74.34C110.61 75.69 110.47 76.41 109.21 77.66C105.41 81.29 101.75 85.05 98.0401 88.76C95.2701 91.53 92.5301 94.33 89.7301 97.06C88.3501 98.41 87.3401 99.91 88.9001 101.58C90.4601 103.25 92.0401 102.3 93.3601 100.89C93.7001 100.52 94.0601 100.18 94.3601 99.82C100.61 93.58 106.88 87.37 113.08 81.08C114.08 80.08 114.78 79.78 115.84 81.02C117.033 82.4101 118.338 83.701 119.74 84.88C121.05 86 121.09 86.76 119.8 88.02C114.8 92.82 109.99 97.76 105.09 102.64C104.035 103.601 103.183 104.763 102.584 106.058C101.985 107.353 101.65 108.754 101.6 110.18C101.727 111.251 101.92 112.313 102.18 113.36C104.43 120.52 113.12 122.65 118.77 117.36C123.14 113.25 127.29 108.91 131.53 104.67C135.53 100.72 135.53 100.72 139.53 104.78C142.29 107.57 142.29 107.57 139.53 110.35C134.99 114.89 130.38 119.35 125.94 123.98C121.5 128.61 121.7 134.98 126.32 138.98C130.32 142.46 136.03 142.05 140.32 137.85C147.6 130.64 154.81 123.36 162.07 116.13C163.66 114.55 165.25 111.91 166.97 111.81C168.97 111.69 170.21 114.81 172.04 116.17C173.87 117.53 173.42 118.58 171.94 120.04C162.03 129.8 152.21 139.67 142.35 149.48C140.96 150.88 139.7 152.4 141.47 154.17C143.24 155.94 144.75 154.54 146.11 153.17C152.35 146.92 158.67 140.75 164.81 134.4C166.49 132.66 167.39 132.4 169.22 134.32C175.56 140.93 182.14 147.32 188.6 153.81C189.84 155.05 191.21 155.5 192.6 154.25C193.99 153 193.67 151.41 192.39 150.09L191.33 149.02C186.203 143.9 181.077 138.78 175.95 133.66C174.31 132.01 171.58 130.39 171.44 128.59C171.28 126.51 174.44 125.2 175.92 123.29C177.22 121.57 178.13 122.1 179.4 123.4C184.11 128.23 188.92 132.96 193.69 137.73C196.1 140.14 198.94 141.66 202.42 141.19C206.3 140.66 209.34 138.72 210.74 134.9C211.475 133.15 211.667 131.22 211.291 129.36C210.914 127.5 209.987 125.796 208.63 124.47C203.72 119.37 198.73 114.34 193.63 109.47C191.95 107.86 192.09 106.94 193.72 105.6C195 104.527 196.181 103.342 197.25 102.06C198.25 100.88 198.92 100.89 200.01 102.06C202.87 105.06 205.86 107.99 208.82 110.91C211.31 113.37 213.69 115.97 216.38 118.19C218.197 119.704 220.508 120.496 222.871 120.413C225.234 120.33 227.484 119.378 229.19 117.74C230.918 116.148 232.03 113.999 232.331 111.67C232.633 109.341 232.105 106.979 230.84 105C230.056 103.823 229.14 102.739 228.11 101.77C219.99 93.63 211.847 85.5133 203.68 77.42C202.47 76.22 202.25 75.42 203.68 74.29C205.126 73.0323 206.48 71.6722 207.73 70.22C208.73 69.12 209.34 69.22 210.3 70.22C213.12 73.22 216.01 76.06 218.91 78.93C221.81 81.8 224.54 84.34 227.29 87.1C232.05 91.88 236.74 96.73 241.5 101.49C241.722 101.748 241.996 101.955 242.305 102.097C242.614 102.239 242.95 102.312 243.29 102.312C243.63 102.312 243.966 102.239 244.275 102.097C244.584 101.955 244.858 101.748 245.08 101.49C245.323 101.265 245.52 100.995 245.658 100.694C245.797 100.393 245.874 100.068 245.886 99.7371C245.898 99.4061 245.845 99.0761 245.729 98.766C245.613 98.4558 245.436 98.1717 245.21 97.93ZM178.94 91.74C177.8 92.85 177.1 93.06 175.99 91.74C174.679 90.2409 173.277 88.8248 171.79 87.5C170.79 86.6 170.87 85.97 171.79 85.1C173.38 83.65 174.87 82.1 176.4 80.56C176.69 80.28 177.01 80.04 177.4 79.72C177.8 80.04 178.12 80.28 178.4 80.54C184.89 85.91 184.86 85.88 178.94 91.74ZM208 28C210.26 25.77 213.16 25.67 215.1 27.63C215.581 28.0944 215.959 28.6539 216.211 29.2727C216.464 29.8915 216.584 30.5561 216.565 31.2241C216.547 31.8921 216.389 32.5488 216.102 33.1525C215.815 33.7561 215.406 34.2934 214.9 34.73C209.57 40.09 204.16 45.37 198.79 50.68C196.08 48.88 193.37 47.07 192.33 43.68C197.53 38.45 202.73 33.19 208 28ZM156.56 29.55C154.56 29.86 152.93 26.55 151.16 24.88C147.35 21.18 143.63 17.37 139.88 13.61C139.13 12.9349 138.62 12.0342 138.427 11.0439C138.234 10.0535 138.369 9.02728 138.81 8.11999C139.162 7.29241 139.743 6.58307 140.486 6.07614C141.229 5.5692 142.101 5.28595 143 5.25999C144.471 5.32238 145.863 5.94487 146.89 6.99999C151.94 12 157 17.09 162.07 22.11C162.95 22.98 163.16 23.57 162.13 24.5C160.23 26.23 158.61 29.21 156.54 29.53L156.56 29.55ZM165.68 39.44C164.292 37.8808 162.82 36.3986 161.27 35C160.27 34.08 160.44 33.51 161.33 32.62C169.943 24.06 178.537 15.4867 187.11 6.89999C187.802 6.10965 188.736 5.56892 189.766 5.36111C190.796 5.15331 191.865 5.28995 192.81 5.74999C194.69 6.56999 195.5 8.11999 195.55 10.5C195.505 11.1478 195.327 11.7794 195.028 12.3557C194.729 12.9319 194.314 13.4406 193.81 13.85C185.29 22.37 176.74 30.85 168.25 39.42C167.26 40.42 166.62 40.49 165.66 39.42L165.68 39.44ZM171.59 45.38C170.92 44.72 170.83 44.22 171.59 43.53C173.26 41.91 174.9 40.27 176.5 38.58C177.23 37.8 177.75 37.76 178.5 38.58C183.58 43.72 188.7 48.82 193.8 53.93C194.088 54.2482 194.359 54.5821 194.61 54.93C194.3 55.3 194.07 55.64 193.79 55.93C192.2 57.51 190.58 59.06 189.02 60.68C188.29 61.44 187.76 61.47 187.02 60.68C181.86 55.56 176.71 50.4533 171.57 45.36L171.59 45.38ZM176.84 59.21C177.59 58.77 178.1 59.21 178.56 59.72C180.448 61.4497 182.222 63.3003 183.87 65.26C183.374 66.0084 182.83 66.7232 182.24 67.4C174.24 75.47 166.11 83.48 158.12 91.6C156.79 92.96 155.98 93.03 154.81 91.6C153.34 89.73 150.19 88.39 150.31 86.33C150.42 84.57 153.16 82.92 154.79 81.33C162.117 73.9033 169.46 66.5233 176.82 59.19L176.84 59.21ZM156.51 59C158.88 60.93 161.35 62.77 162.78 65.6L156.78 71.6C154.57 71 153.7 68.8 151.98 67.6C149.64 65.3 149.64 65.3 151.98 62.97L155.85 59.12C156 59.05 156.35 58.91 156.51 59ZM130.11 45.74C126.47 42.22 122.93 38.59 119.33 35.02C118.698 34.4728 118.192 33.7954 117.847 33.0341C117.502 32.2728 117.325 31.4459 117.33 30.61C117.407 29.7199 117.73 28.8688 118.264 28.1521C118.797 27.4354 119.52 26.8815 120.35 26.5524C121.181 26.2232 122.087 26.1319 122.966 26.2887C123.846 26.4455 124.664 26.8442 125.33 27.44C130.72 32.73 136 38.15 141.33 43.49C142.06 44.21 141.95 44.74 141.24 45.32L141.07 45.5C139.2 47.26 137.5 50.18 135.43 50.5C133.36 50.82 131.88 47.5 130.11 45.78V45.74ZM129.62 64.32C134.747 59.2333 139.853 54.1233 144.94 48.99C145.7 48.23 146.21 48.18 146.94 48.99C148.47 50.63 150.09 52.19 151.66 53.78C151.95 54.07 152.19 54.4 152.55 54.78C152.321 55.1286 152.071 55.4626 151.8 55.78C146.7 60.91 141.56 66 136.46 71.1C135.7 71.86 135.17 71.91 134.46 71.1C132.91 69.48 131.31 67.91 129.68 66.37C128.87 65.65 128.83 65.13 129.62 64.36V64.32ZM119.76 77.42C112.61 70.33 105.53 63.17 98.4001 56.05C97.7812 55.5212 97.2794 54.8693 96.9264 54.1359C96.5734 53.4024 96.3772 52.6035 96.3501 51.79C96.3773 50.9827 96.6185 50.1971 97.049 49.5136C97.4794 48.8302 98.0837 48.2733 98.8001 47.9C99.6121 47.4577 100.533 47.2557 101.456 47.3177C102.379 47.3797 103.264 47.703 104.01 48.25C104.472 48.6032 104.9 48.9982 105.29 49.43C113.6 57.72 121.88 66.04 130.23 74.28C131.47 75.5 131.59 76.28 130.23 77.41C128.39 78.94 127 82 125 82.06C123 82.12 121.45 79.14 119.76 77.46V77.42ZM115.82 112.69C114.814 113.878 113.417 114.669 111.88 114.92C111.015 114.95 110.158 114.746 109.399 114.331C108.64 113.915 108.007 113.303 107.566 112.558C107.125 111.814 106.893 110.964 106.893 110.099C106.894 109.233 107.128 108.384 107.57 107.64C108.039 106.953 108.586 106.322 109.2 105.76C120.9 94.03 132.64 82.33 144.29 70.55C145.61 69.21 146.39 69.08 147.59 70.55C148.699 71.9042 149.935 73.1498 151.28 74.27C152.7 75.46 152.38 76.27 151.19 77.41C139.37 89.1367 127.58 100.91 115.82 112.73V112.69ZM151.39 119.24C146.39 124.12 141.49 129.07 136.56 134.01C136.078 134.584 135.479 135.049 134.803 135.373C134.127 135.697 133.39 135.873 132.64 135.89C131.719 135.919 130.812 135.664 130.04 135.159C129.269 134.655 128.672 133.925 128.33 133.07C127.87 132.125 127.739 131.053 127.956 130.024C128.173 128.996 128.727 128.069 129.53 127.39C133.57 123.33 137.62 119.277 141.68 115.23C145.94 110.97 145.94 110.97 150.19 115.23C150.576 115.667 150.99 116.078 151.43 116.46C152.72 117.49 152.44 118.25 151.39 119.28V119.24ZM161.3 109.3C159.59 110.7 158.37 113.52 156.37 113.49C154.53 113.49 153.21 110.83 151.68 109.33C147.89 105.6 144.2 101.78 140.4 98.07C139.4 97.07 139.3 96.44 140.4 95.48C142.26 93.84 143.87 90.91 145.84 90.67C147.81 90.43 149.47 93.61 151.23 95.31C154.82 98.77 158.29 102.31 161.8 105.88C162.25 106.33 162.64 106.88 163.42 107.77C162.65 108.36 161.94 108.81 161.3 109.34V109.3ZM204.39 127.4C204.919 127.875 205.339 128.458 205.62 129.111C205.902 129.764 206.038 130.469 206.02 131.18C206.027 131.994 205.821 132.797 205.424 133.507C205.026 134.218 204.451 134.813 203.753 135.234C203.056 135.655 202.261 135.887 201.447 135.907C200.633 135.928 199.827 135.736 199.11 135.35C198.324 134.883 197.609 134.303 196.99 133.63C185.27 121.93 173.59 110.18 161.82 98.52C160.41 97.13 160.32 96.28 161.82 95.02C163.214 93.8281 164.52 92.5381 165.73 91.16C166.64 90.16 167.26 90.32 168.16 91.22C180.227 103.327 192.303 115.4 204.39 127.44V127.4ZM207.79 91.13C208.79 90.07 209.37 90.39 210.21 91.24C215.237 96.3333 220.293 101.397 225.38 106.43C225.904 106.908 226.321 107.493 226.602 108.144C226.883 108.796 227.022 109.5 227.01 110.21C227.01 111.086 226.758 111.944 226.284 112.681C225.811 113.418 225.136 114.005 224.34 114.37C223.585 114.841 222.693 115.047 221.807 114.955C220.922 114.863 220.092 114.477 219.45 113.86C213.88 108.5 208.45 102.99 202.94 97.55C202.15 96.76 202.62 96.27 203.2 95.71C204.75 94.24 206.33 92.76 207.79 91.17V91.13ZM204.05 85.13C204.39 85.47 204.69 85.86 205.05 86.31C204.67 86.77 204.4 87.17 204.05 87.51C199.11 92.46 194.14 97.39 189.24 102.38C188.24 103.38 187.62 103.51 186.64 102.38C185.255 100.825 183.786 99.3458 182.24 97.95C181.24 97.01 181.43 96.4 182.32 95.53C187.313 90.63 192.273 85.6967 197.2 80.73C198.09 79.83 198.69 79.68 199.6 80.68C201 82.25 202.58 83.66 204.05 85.13ZM218.24 70.94C216.84 69.41 215.36 67.94 213.82 66.55C212.82 65.66 212.92 65.05 213.82 64.15C218.97 59.08 224.06 53.94 229.2 48.85C229.913 48.0777 230.86 47.5614 231.896 47.3807C232.931 47.2 233.998 47.3649 234.93 47.85C235.727 48.1843 236.402 48.7566 236.862 49.4886C237.322 50.2205 237.545 51.0766 237.5 51.94C237.535 52.6214 237.419 53.3021 237.159 53.9332C236.9 54.5643 236.504 55.1301 236 55.59C230.89 60.7 225.75 65.79 220.67 70.93C219.74 71.86 219.14 71.92 218.24 70.94Z" fill="#414042"/>
<path d="M154 172.82C152.01 172.575 150.003 172.501 148 172.6C145.31 172.6 144.39 173.53 144.34 176.23C144.27 179.81 144.34 183.39 144.34 186.97C144.34 193.4 144.34 193.4 150.64 193.41H152.39C158.3 193.41 161.85 190.09 162.39 184.18C162.9 178.11 159.74 173.72 154 172.82ZM157 184.42C156.48 187.91 154.22 189.55 150.68 189.16C149.56 189.04 149.29 188.54 149.32 187.57C149.32 186.08 149.32 184.57 149.32 183.1C149.32 181.94 149.32 180.78 149.32 179.62C149.32 176.88 149.65 176.62 152.32 176.97C155.75 177.45 157.61 180.41 157 184.42Z" fill="#414042"/>
<path d="M75.06 182.78C74.32 182.23 73.84 182.05 74.58 180.95C77.06 177.23 75.25 173.3 70.82 172.7C68.9985 172.53 67.1672 172.49 65.34 172.58C62.99 172.58 61.83 173.77 61.84 176.14C61.84 179.8 61.84 183.46 61.84 187.14C61.84 193.43 61.84 193.43 68.2 193.41C69.37 193.41 70.54 193.41 71.7 193.41C72.9574 193.371 74.1708 192.938 75.1685 192.171C76.1663 191.405 76.8979 190.345 77.26 189.14C77.6749 187.988 77.6828 186.729 77.2826 185.572C76.8823 184.415 76.098 183.429 75.06 182.78ZM68.55 176.89C69.79 176.98 70.97 177.22 70.94 178.75C70.91 180.28 69.82 180.6 68.46 180.52C66.96 180.74 66.81 179.82 66.8 178.58C66.79 177.34 67.28 176.78 68.55 176.89ZM69.15 189.12C67.79 189.32 66.77 189.12 66.82 187.12C66.87 185.41 67.31 184.73 69.08 184.88C70.64 185.02 72.21 185.03 72.26 187.11C72.31 189.19 70.76 189.16 69.15 189.12Z" fill="#414042"/>
<path d="M163.81 215.27C162.89 214.45 163.02 213.79 163.81 212.99C164.6 212.19 164.96 211.28 164.09 210.35C163.09 209.26 162.09 209.78 161.32 210.66C160.32 211.75 159.81 210.93 159.13 210.28C158.45 209.63 158.71 209.09 159.42 208.54C160.99 207.33 161.9 205.77 161.03 203.78C160.16 201.79 158.4 201.41 156.89 201.27C152.81 201.21 150.24 203.75 151.57 206.51C152.42 208.3 151.85 209.08 150.72 210.2C149.978 210.888 149.479 211.798 149.299 212.793C149.118 213.789 149.266 214.816 149.72 215.72C150.128 216.634 150.799 217.407 151.646 217.941C152.493 218.475 153.479 218.746 154.48 218.72C155.982 218.849 157.483 218.457 158.73 217.61C158.899 217.431 159.107 217.293 159.338 217.205C159.568 217.118 159.815 217.084 160.061 217.106C160.306 217.129 160.543 217.206 160.755 217.333C160.966 217.46 161.145 217.634 161.28 217.84C161.427 218.073 161.627 218.269 161.863 218.411C162.099 218.554 162.365 218.639 162.64 218.66C162.915 218.682 163.191 218.638 163.446 218.534C163.701 218.43 163.929 218.268 164.11 218.06C165.08 217.1 164.71 216.07 163.81 215.27ZM155.33 215.27C153.96 215.22 153.12 214.61 153.11 213.18C153.098 212.72 153.244 212.271 153.525 211.906C153.805 211.542 154.203 211.286 154.65 211.18C155.833 211.774 156.732 212.814 157.15 214.07C157.31 214.66 156.28 215.3 155.33 215.27ZM156.2 206.79C155.91 206.732 155.653 206.567 155.479 206.328C155.305 206.089 155.227 205.794 155.26 205.5C155.244 205.353 155.262 205.204 155.311 205.064C155.36 204.924 155.44 204.797 155.544 204.692C155.649 204.586 155.775 204.506 155.914 204.455C156.054 204.405 156.202 204.386 156.35 204.4C157.15 204.4 157.53 204.88 157.55 205.69C157.4 206.4 157 206.92 156.2 206.79Z" fill="#414042"/>
<path d="M305.79 201.27C301.02 201.27 297.64 204.99 297.66 210.1C297.68 215.21 300.96 218.73 305.88 218.72C310.8 218.71 313.88 215.35 313.88 210C313.88 204.65 310.59 201.22 305.79 201.27ZM305.89 215.27C303.52 215.27 301.89 213.09 301.89 209.94C301.89 207.02 303.66 204.77 305.89 204.81C308.12 204.85 309.75 207.15 309.72 210.09C309.68 213.21 308.19 215.23 305.89 215.24V215.27Z" fill="#414042"/>
<path d="M24.37 201.28C19.61 201.28 16.19 205.01 16.23 210.09C16.23 215.33 19.52 218.74 24.44 218.73C29.36 218.72 32.56 215.25 32.56 210.01C32.56 204.77 29.16 201.25 24.37 201.28ZM27.42 213.53C27.1975 213.93 26.8963 214.281 26.5345 214.562C26.1727 214.842 25.7578 215.047 25.3149 215.163C24.8719 215.279 24.4101 215.303 23.9572 215.236C23.5044 215.168 23.0699 215.01 22.68 214.77C19.68 213.01 19.68 207.03 22.68 205.32C25.46 203.74 28.19 206.02 28.24 209.95C28.3125 211.197 28.0281 212.439 27.42 213.53Z" fill="#414042"/>
<path d="M68.14 215.31C67.47 214.57 66.84 213.8 66.14 213.08C65.44 212.36 64.97 211.75 66.35 211.08C68.35 210.15 68.89 208.3 68.63 206.27C68.5103 205.312 68.0987 204.415 67.451 203.699C66.8034 202.983 65.9511 202.484 65.01 202.27C62.8995 201.8 60.7224 201.709 58.58 202C58.3042 201.999 58.0313 202.055 57.7783 202.165C57.5253 202.275 57.2978 202.436 57.11 202.638C56.9221 202.84 56.7781 203.078 56.6869 203.338C56.5957 203.599 56.5593 203.875 56.58 204.15C56.58 208.3 56.58 212.45 56.58 216.6C56.5428 216.871 56.566 217.147 56.6478 217.409C56.7297 217.67 56.8682 217.91 57.0535 218.111C57.2388 218.313 57.4664 218.471 57.7199 218.575C57.9733 218.678 58.2465 218.724 58.52 218.71C59.88 218.71 60.52 217.95 60.62 216.71C60.72 215.47 60.76 214.44 60.87 212.52L65.08 217.73C65.2298 217.984 65.4319 218.203 65.6727 218.372C65.9136 218.542 66.1877 218.659 66.477 218.714C66.7663 218.77 67.0642 218.764 67.3509 218.696C67.6376 218.628 67.9065 218.5 68.14 218.32C69.26 217.51 69.05 216.33 68.14 215.31ZM62.14 209.1C60.34 209.28 60.77 207.93 60.71 206.95C60.65 205.97 60.77 205.11 62.12 205.24C63.47 205.37 64.67 205.75 64.65 207.33C64.63 208.91 63.3 209 62.14 209.1Z" fill="#414042"/>
<path d="M235 202.52C232.49 201.28 229.79 201.63 227.17 201.98C225.96 202.14 225.58 203.32 225.58 204.5V210V215.49C225.58 215.65 225.58 215.82 225.58 215.99C225.64 217.4 225.85 218.77 227.71 218.71C229.57 218.65 229.64 217.3 229.49 216.02C229.2 213.56 229.85 212.44 232.64 212.67C235.43 212.9 237.02 211.32 237.64 208.74C237.951 207.557 237.861 206.305 237.383 205.179C236.905 204.053 236.067 203.118 235 202.52ZM231.14 209.52C229.32 209.66 229.36 208.52 229.48 207.3C229.29 205.99 229.48 205.09 231.23 205.22C232.72 205.34 233.66 206.03 233.67 207.44C233.68 208.85 232.54 209.37 231.14 209.48V209.52Z" fill="#414042"/>
</g>
<defs>
<clipPath id="clip0_1976_513">
<rect width="333.35" height="218.88" fill="white"/>
</clipPath>
</defs>
</svg>
